<svg xmlns="http://www.w3.org/2000/svg" fill="none" class="icons icon-carts" >
<path d="M25.2354 21.2509H8.95225L9.76982 19.433L23.3542 19.4062C23.8136 19.4062 24.2073 19.048 24.2894 18.5525L26.1706 7.05733C26.2198 6.75584 26.146 6.44541 25.9655 6.20959C25.8763 6.09354 25.7651 6.00005 25.6395 5.93562C25.5139 5.87119 25.377 5.83736 25.2382 5.83647L7.95693 5.77379L7.80928 5.0156C7.71631 4.53204 7.31709 4.17981 6.86318 4.17981H2.63857C2.38258 4.17981 2.13707 4.29082 1.95605 4.48843C1.77503 4.68604 1.67334 4.95405 1.67334 5.23351C1.67334 5.51296 1.77503 5.78098 1.95605 5.97858C2.13707 6.17619 2.38258 6.2872 2.63857 6.2872H6.08115L6.72646 9.63635L8.31514 18.0331L6.26982 21.6777C6.16361 21.8342 6.09963 22.0201 6.08514 22.2142C6.07064 22.4083 6.1062 22.603 6.18779 22.7762C6.35186 23.1314 6.68271 23.3553 7.04912 23.3553H8.76631C8.40023 23.8861 8.20249 24.5326 8.20303 25.197C8.20303 26.8865 9.46084 28.2596 11.0085 28.2596C12.5562 28.2596 13.814 26.8865 13.814 25.197C13.814 24.5314 13.6116 23.8836 13.2507 23.3553H17.6558C17.2897 23.8861 17.0919 24.5326 17.0925 25.197C17.0925 26.8865 18.3503 28.2596 19.8979 28.2596C21.4456 28.2596 22.7034 26.8865 22.7034 25.197C22.7034 24.5314 22.5011 23.8836 22.1401 23.3553H25.2382C25.7687 23.3553 26.2034 22.8837 26.2034 22.3016C26.2018 22.0224 26.0992 21.7553 25.9178 21.5584C25.7365 21.3616 25.4912 21.251 25.2354 21.2509ZM8.35889 7.85133L24.1034 7.90805L22.5612 17.3346L10.1937 17.3585L8.35889 7.85133ZM11.0085 26.1403C10.5327 26.1403 10.1444 25.7164 10.1444 25.197C10.1444 24.6776 10.5327 24.2538 11.0085 24.2538C11.4843 24.2538 11.8726 24.6776 11.8726 25.197C11.8726 25.4472 11.7815 25.6871 11.6195 25.864C11.4574 26.0409 11.2377 26.1403 11.0085 26.1403ZM19.8979 26.1403C19.4222 26.1403 19.0339 25.7164 19.0339 25.197C19.0339 24.6776 19.4222 24.2538 19.8979 24.2538C20.3737 24.2538 20.762 24.6776 20.762 25.197C20.762 25.4472 20.671 25.6871 20.5089 25.864C20.3469 26.0409 20.1271 26.1403 19.8979 26.1403Z" fill="black"/>
</svg>
