<svg xmlns="http://www.w3.org/2000/svg" fill="none" class="iconnew icon-account">
<path d="M23.3333 15.5824V9.21448H25.6666V16.856H23.3333M23.3333 21.9504H25.6666V19.4032H23.3333M11.6666 16.856C14.7816 16.856 20.9999 18.5626 20.9999 21.9504V25.7711H2.33325V21.9504C2.33325 18.5626 8.55159 16.856 11.6666 16.856ZM11.6666 5.39371C12.9043 5.39371 14.0912 5.93043 14.9664 6.88581C15.8416 7.84119 16.3333 9.13696 16.3333 10.4881C16.3333 11.8392 15.8416 13.1349 14.9664 14.0903C14.0912 15.0457 12.9043 15.5824 11.6666 15.5824C10.4289 15.5824 9.24192 15.0457 8.36675 14.0903C7.49158 13.1349 6.99992 11.8392 6.99992 10.4881C6.99992 9.13696 7.49158 7.84119 8.36675 6.88581C9.24192 5.93043 10.4289 5.39371 11.6666 5.39371ZM11.6666 19.2758C8.20159 19.2758 4.54992 21.1353 4.54992 21.9504V23.3513H18.7833V21.9504C18.7833 21.1353 15.1316 19.2758 11.6666 19.2758ZM11.6666 7.81353C11.0168 7.81353 10.3936 8.09531 9.93417 8.59688C9.47471 9.09846 9.21659 9.77873 9.21659 10.4881C9.21659 11.1974 9.47471 11.8777 9.93417 12.3793C10.3936 12.8808 11.0168 13.1626 11.6666 13.1626C12.3164 13.1626 12.9395 12.8808 13.399 12.3793C13.8585 11.8777 14.1166 11.1974 14.1166 10.4881C14.1166 9.77873 13.8585 9.09846 13.399 8.59688C12.9395 8.09531 12.3164 7.81353 11.6666 7.81353Z" fill="black"/>
</svg>
